<svg xmlns="http://www.w3.org/2000/svg" width="1024" height="1024" viewBox="0 0 1024 1024">
  <defs>
    <style>
      .cls-1 {
        fill-rule: evenodd;
      }
    </style>
  </defs>
  <path id="Bauxite-3" class="cls-1" d="M839.414,719.882s-79.5,53.4-109.434,65.041-32,11.356-32,11.356-41.188,7.178-58.846-1.032-64.009-25.81-64.009-25.81a463.7,463.7,0,0,0-50.587,17.551c-25.685,10.763-110.349,25.528-197.187,17.551s-180.543-34.9-258.1-81.56c-18.03-18.087-27.875-40.263-27.875-40.263S44.811,621.5,64.086,553.667s22.039-100.405,36.134-111.5,26.587-22.427,38.2-22.712,56.308-1.179,70.2,1.032c6.678,1.063,13.851-3.389,16.518-12.389,10.747-36.262,16.519-33.037,16.519-33.037s7.167-4.641,40.263-3.1c13.351-15.892,39.255-58.476,53.685-68.138,26.334-10.851,55.749-11.356,55.749-11.356s22.569-35.978,49.555-62.976c23.414-12.712,46.733-13.572,54.717-11.356,32.985,14.121,54.717,22.712,54.717,22.712s64.218,52.25,86.721,71.235,61.261,54.51,91.883,67.106,41.515,16.33,59.879,29.94S893.1,504.112,893.1,504.112s61,22.143,77.429,49.555,11.357,85.689,11.357,85.689-11.007,45.757-50.588,83.623C896.479,741.8,864.415,729.406,839.414,719.882ZM781,728s-13.99,10.166-22.113-.891-3.327-28.817-15.486-38.2c-12.729-9.823-51.594,8.049-67.1-7.226C654.354,660.076,649.037,623.272,640,619c-9.279-4.387-37.837,8.589-48.36,1.772-14.154-9.167-15.3-36.444-4.13-47.49,8.594-8.5,58.472-9.914,76.4,1.033C683.528,586.3,673.188,642.5,684,653c13.422,13.031,61.174-9.418,71.79-5.385s23.052,17.224,27.875,25.809S786.52,717.879,781,728ZM943.686,601.157s-56.792-.132-60.911,3.1-10.292,14.637-15.486,14.454-26.611-.491-32-3.1-6.322-25.293-3.1-30.971S868.76,572,875.548,568.12s70.581-1.661,72.268,4.13S951.047,593.8,943.686,601.157Zm-178.6-101.175c-5.412,10.823-66.262,7.734-74.333,1.033s-11.838-17.359-19.615-17.551-42.569-2.119-49.555,2.065-2.867,12.74-7.227,18.583-24.707,1.539-27.874-4.13-6.034-30.469,0-39.231,27.366-14.132,35.1-20.648,52.913-5,58.846,2.065,13.73,10.131,22.713,11.356,35.639-3.333,44.393,7.227S771.522,487.1,765.082,499.982ZM703,421c-0.287,4.531-13.105-4.358-64-2-7.051.327-42.55,2.4-52,0-6.652-1.693-18.951-13.649-24.943-14.281s-23.185,2.081-31.329-3.847-19.982-26.124-32-28.907S451.861,370.313,449,365c-2.7-5.014,7.154-10.047,20-10s45.3-7.319,54.5,2.512,13.06,17.234,17.551,21.68S563.615,383.216,570,385s21.13,14.638,24.737,16.9S681.825,405.137,689,409,703.353,415.43,703,421ZM491.5,631.1c0,7.965-15.736,6.257-20.648,3.1s-7.855-23.046-14.453-30.972-58.588-6.957-64.009-10.324-6.391-7.189-6.194-16.519,78.711-4.6,86.721-2.064S491.5,615.533,491.5,631.1Zm-99.11,84.657c-1.616,5.658-89.807,12.131-103.239,7.226S254.2,707.1,239.593,703.364s-38.255-4.179-40.263-15.486,5.217-18.366,13.421-18.583,33.555,6.36,43.36,8.259,30.75,21.286,48.523,21.68,67.915-4.764,77.429-1.032S395.846,703.648,392.387,715.753ZM136.354,433.909c6.639-8.537,28.473-2.321,34.646.091s9.046,11.693,17,15,23.6,3.738,34.042,5.557,15.816,20.55,25.81,22.713,74.178,5.855,113.564,5.162,51.267,1.553,53.684,6.194-5.333,9.666-19.615,10.324S321.533,499.828,307,502s-16.534,11.063-24.046,14.5c-14.732,6.74-43.212,4.116-50.588-2.065S223.546,505.56,219,503s-18.387-4.805-24-9-9.576-6.122-15-9-18.908-4.514-25-8c-5.055-2.893-16.637-12.062-21.744-20.378S132.319,439.1,136.354,433.909Z"/>
</svg>
