<svg xmlns="http://www.w3.org/2000/svg" width="1024" height="1024" viewBox="0 0 1024 1024">
  <defs>
    <style>
      .cls-1 {
        fill-rule: evenodd;
      }
    </style>
  </defs>
  <path id="Cars-3" class="cls-1" d="M1004,562c-0.37,4.432-1,15-1,15H850.952a64.493,64.493,0,0,1-128.889,0H323.5a64.433,64.433,0,0,1-128.726,0H37s-7.3-21.342-1-28,20-7,20-7-4.565-47.172,6-60c0,0,41.294-24.49,116-34,4.009-23.87,14.526-51.526,22-64s39.631-30.073,67-38,44.866-10.968,151-10,195,23,195,23,36.508,18.487,76,75c71.526,6.8,206,27,206,27l4-18a27.872,27.872,0,0,1,18,1l3,26s24.6,18.86,48,72c10.619,0.058,21,1,21,1S1004.76,538.985,1004,562Zm-766.989,12a22.127,22.127,0,1,0,22.127-22.126A22.127,22.127,0,0,0,237.011,574.005ZM421,378H286s-7.755-1.365-22,38c-13.394,37.012-8,43-8,43H421V378Zm155,0H446v81H624.56l-48.152-81H576Zm45,0H601.408l46.419,78.086c9.321-2.379,20.7-6.618,29.173-14.086C660.646,414.718,621,378,621,378ZM786.513,552.357a22.148,22.148,0,1,0,22.147,22.148A22.148,22.148,0,0,0,786.513,552.357Z" transform="translate(-6.734 24.594)"/>
</svg>
