<svg xmlns="http://www.w3.org/2000/svg" width="1024" height="1024" viewBox="0 0 1024 1024">
  <defs>
    <style>
      .cls-1 {
        fill-rule: evenodd;
      }
    </style>
  </defs>
  <path id="Cattle-3" class="cls-1" d="M917.779,541.52c-11.387,1.367-42.157,30.689-48.444,109.256s-5.885,144.871,3.092,162.852,15.2,30.758,13.4,38.137-27.834,40.072-37.106,59.781-20.614,60.812-20.614,60.812-23.066,9.925-24.737-3.092c0.208-17.4,20.883-69.214,20.614-82.457s-10.615-33.617-18.553-31.952-22.248,29.871-28.86,64.935-8.764,53.7-17.522,53.6c-15.651-.178-17.481.5-14.43-46.382s-0.452-68.593-21.645-93.795-36.22-36.583-64.935-37.106c-26.113-.475-35.452,7.109-42.259,12.369-7.965,6.154-10.912,7.75-15.461,9.276-8.669,2.908-20.037-6.561-48.443-6.184s-57.309,6.81-84.519,38.136c-17.31,19.929-21.449,41.4-26.8,79.365-4.307,30.566-5.055,41.075-16.492,41.229-15.821.212-12.133-5.772-13.4-45.352s3.305-72.412-22.676-74.211-39.44,6.233-46.382,30.921c-4.5,16.016-5.175,44.989-7.183,64.292-1.463,14.059-5.655,17.6-12.4,18.165-15.872,1.34-14.814-10.273-14.43-34.013,0.166-10.3.307-30.467,0-44.321-0.754-33.973-.865-45.917-14.43-61.843s-26.565-20.324-46.382-98.948-29.072-169.038-51.536-205.112c-34.44-55.308-34.2-41.895-39.167-59.781s-1.585-50.195,0-84.518,3.454-51.909-16.491-73.181-77.73-86.211-85.55-144.3-15.6-96.549-5.154-106.163,18.233,1.005,19.584,6.184,7.941,39.385,19.584,72.15,40.614,72.679,86.58,83.488,106.656,11.859,148.422,4.122,71.1-17.213,101.01-36.074,50.505-54.464,62.874-84.519,32.786-7.353,12.368,49.474-58.9,96.522-85.549,127.809-23.009,57.2-19.583,71.119,9.194,25.085,65.965,46.382,129.835,32.5,225.726,43.29,174.6,6.267,196.866,7.215,27.6,1.129,43.29,15.461,33.609,33.127,37.106,67,11.115,50.916,2.061,116.47-16.418,98.656,1.031,124.717,17.769,44.042,5.154,49.474-47.371-3.818-46.382-68.027,10.266-67.4,15.46-112.348S950.557,537.587,917.779,541.52Z" transform="translate(0.016 0)"/>
</svg>
