<svg xmlns="http://www.w3.org/2000/svg" width="1024" height="1024" viewBox="0 0 1024 1024">
  <defs>
    <style>
      .cls-1 {
        fill-rule: evenodd;
      }
    </style>
  </defs>
  <path id="Cheese-4" class="cls-1" d="M971.16,648.78l-529.36,260-12.48,1.04S177.145,892.531,51.8,777.74a56.1,56.1,0,0,1-7.28-11.44V184.94L57,176.62l911.04-37.44,11.44,7.28v494ZM509.928,810.612a39.355,39.355,0,0,0,11.379,19.947l88.707-43.538c-6.007-23-32.257-36.676-59.446-30.666C522.833,762.486,504.638,786.778,509.928,810.612Zm34.8-74.863c38.138-8.43,74.988,10.094,84.77,41.709L934.455,627.785l7.6-7.593-0.159-426.943-39.2,9.9a42.044,42.044,0,0,1,3,8.741c5.806,26.157-14.162,52.815-44.6,59.543s-59.817-9.022-65.623-35.178a42.241,42.241,0,0,1-.851-5.811L460.24,314.9V860.53l40.621-19.937a56.237,56.237,0,0,1-14.547-26.857C478.71,779.477,504.863,744.561,544.728,735.749Zm267.285-509.7c0.156,1.846.428,3.777,0.809,5.826,3.328,17.9,25.049,28.458,47.147,23.574s33.492-24.195,28.7-43.048a22.94,22.94,0,0,0-2.009-5.2ZM88.776,755.686c104.475,95.679,301.987,112.836,335.562,115.1l-1-552.81s-50.809-5.6-115.778-18.43c-7.765,35.99-44.627,60.828-89.237,57.439-50.561-3.842-91.9-42.481-92.339-86.3a66.637,66.637,0,0,1,3.573-22.326c-17.519-7.573-33.61-15.84-47.431-24.844V745.242A51.188,51.188,0,0,0,88.776,755.686Zm63.546-498.162a49.116,49.116,0,0,0-2.174,14.99c0.321,32.258,30.753,60.7,67.971,63.528,32.487,2.468,59.4-15.4,65.507-41.435C240.67,285.366,193.8,273.143,152.322,257.524ZM128.873,210.63c11.084,5.068,27.662,12.043,50.008,19.9a80.529,80.529,0,0,0,26.14-3.821,76.126,76.126,0,0,0,32.943-20.661Zm302.154-12.7L267.46,204.805c-10.175,16.606-26.515,30.637-47.2,39.073,52.035,15.43,123.581,31.924,216.409,43.347,6.5-1.085,25.3-5.323,51.942-11.59-37.048-6.275-65.2-27.16-66.61-51.975C421.469,214.342,424.772,205.576,431.027,197.93ZM567.9,220.154c-0.6-10.61-7.806-20.217-18.968-27.18l-89.419,3.758c-7.36,6.49-11.5,14.607-11,23.422,1.209,21.26,28.914,38.5,61.883,38.5S569.106,241.414,567.9,220.154Zm15.182,32.816c104.633-25.4,236.936-58.166,301.072-74.086L576.785,191.8c11.037,8.926,17.895,19.937,18.572,31.857C595.972,234.471,591.408,244.531,583.079,252.97ZM129.229,530.639c24.68-2.291,48.136,22.087,48.136,55.973,0,33.853-23.428,57.2-48.136,53.774C105.515,637.1,89.213,611.735,89.213,584.6,89.213,557.442,105.53,532.838,129.229,530.639Zm-1.039,89.306C143.367,621.4,156.4,606.323,156.4,586.19s-13.037-35.805-28.214-35.051c-14.263.709-25.21,15.836-25.21,33.824S113.927,618.581,128.19,619.945Zm157.3-31.386c55.757,0,100.957,44.971,100.957,100.445s-45.2,100.445-100.957,100.445S184.53,744.478,184.53,689,229.73,588.559,285.487,588.559Zm0,174.382c41.043,0,74.314-33.1,74.314-73.937s-33.271-73.937-74.314-73.937-74.315,33.1-74.315,73.937S244.444,762.941,285.487,762.941Zm50.378-204.506a68.823,68.823,0,1,1,69.174-68.823A69,69,0,0,1,335.865,558.435Zm-0.156-117.468c-26.322,0-47.66,21.8-47.66,48.685s21.338,48.685,47.66,48.685,47.66-21.8,47.66-48.685S362.031,440.967,335.709,440.967Zm195.765,43.048c27.454,0,49.71,32.351,49.71,72.258s-22.256,72.259-49.71,72.259-49.71-32.351-49.71-72.259S504.02,484.015,531.474,484.015Zm1.579,114.244c15.952,0,28.884-18.8,28.884-41.986s-12.932-41.985-28.884-41.985-28.883,18.8-28.883,41.985S517.1,598.259,533.053,598.259Zm22-157.292c-23.492,0-42.536-25.009-42.536-55.86s19.044-55.859,42.536-55.859,42.535,25.009,42.535,55.859S578.539,440.967,555.048,440.967Zm2.05-84.873c-12.2,0-22.093,12.99-22.093,29.013S544.9,414.12,557.1,414.12s22.092-12.989,22.092-29.013S569.3,356.094,557.1,356.094Zm143.492-60.67c35.945,0,65.084,34.187,65.084,76.359s-29.139,76.358-65.084,76.358-65.084-34.186-65.084-76.358S664.645,295.424,700.59,295.424Zm2.05,128.656c24.618,0,44.575-23.414,44.575-52.3s-19.957-52.3-44.575-52.3-44.575,23.414-44.575,52.3S678.022,424.08,702.64,424.08Zm40.29,125.689c44.744-9.89,87.935,13.263,96.469,51.715s-20.819,77.64-65.563,87.53S685.9,675.752,677.367,637.3,698.186,559.66,742.93,549.769Zm-38.518,81.552c5.8,26.125,35.143,41.856,65.543,35.136s50.343-33.345,44.545-59.47-35.143-41.855-65.543-35.135S698.614,605.2,704.412,631.321Z" transform="translate(0 -12.5)"/>
</svg>
