<svg xmlns="http://www.w3.org/2000/svg" width="1024" height="1024" viewBox="0 0 1024 1024">
  <defs>
    <style>
      .cls-1 {
        fill-rule: evenodd;
      }
    </style>
  </defs>
  <path id="China-3" class="cls-1" d="M1002,704c0,28.606-65.154,54.256-168.223,71.673L741,837l-1.251.108-0.642,1.082c-60.052,8.653-133.879,13.954-214,14.472q-1.6.01-3.207,0.019-1.512.007-3.027,0.013c-4.294.015-9.16,0.016-13.626,0q-1.394,0-2.783-.012-1.915-.009-3.826-0.023c-80.017-.538-153.741-5.873-213.73-14.573l-0.573-.971L283,837l-93.129-61.56C87.59,758.028,23,732.479,23,704c0-34.721,96-65.083,239.271-81.655L216.558,253.5a15.59,15.59,0,0,1-.545-3.986c0-.094.014-0.188,0.016-0.283L216,249h0.042c1.234-36.489,133.479-65.984,296.458-65.984S807.724,212.511,808.958,249h0.233l-8.026,64.756a94.622,94.622,0,0,1,24.847-24.517c30.846-20.843,84.575-18.179,112.422,4s57.572,79.847,12.078,148.885-139.42,117.837-154.232,127.9c-14.409,9.792-8.169,28.545-30.581,29.9l-2.782,22.444C906.084,638.943,1002,669.3,1002,704Zm-48.813-3.983c0-19.879-76.5-37.6-193.935-48.079L746.851,752C871.269,740.512,953.187,720.588,953.187,700.017ZM298.567,813.032c58.257,6.787,132.309,11.043,213.464,11.043,27.4,0,53.987-.489,79.436-1.393,0.02,0.071.04,0.143,0.061,0.214,49.679-1.754,94.964-5.1,133.422-9.535l41.143-28.088C692.132,793.984,605.335,799,512.5,799c-93.345,0-180.581-5.073-254.806-13.873ZM71.813,700.017c0,20.582,82,40.516,206.53,52l-12.406-100.1C148.4,662.4,71.813,680.127,71.813,700.017ZM512.5,209.009c-141.655,0-256.489,17.461-256.489,39s114.834,39,256.489,39,256.489-17.46,256.489-39S654.155,209.009,512.5,209.009Zm0,107c-111.045,0-207.813-13.695-258.611-33.963l55.6,472.6C370.07,759.291,439.028,762,512.5,762s142.425-2.709,203-7.354l55.6-472.593C720.3,302.319,623.539,316.013,512.5,316.013ZM781.415,536.049c11.368-5.651,64.77-29.85,103.131-67.948s59.1-72.415,54.608-105.906C934.646,328.561,896.319,294.692,853,313c-36.4,15.385-43.712,57.177-43.712,57.177s-2.463,28.988-19.132,32.406L772.741,543.1A29.315,29.315,0,0,1,781.415,536.049Z" transform="translate(-0.5 -5.875)"/>
</svg>
