<svg xmlns="http://www.w3.org/2000/svg" width="1024" height="1024" viewBox="0 0 1024 1024">
  <defs>
    <style>
      .cls-1 {
        fill-rule: evenodd;
      }
    </style>
  </defs>
  <path id="Chocolate-3" class="cls-1" d="M987.735,417.542L980.63,425.8l-30.206,10.88-0.108.5-3.2,29.694L921.228,470.7l0.366,36.136-25.3,9.886,12.58,85.663-3.472.931h0L719.072,653.244l3.753,14.006a12,12,0,0,1-8.485,14.7L154.1,832.062a12,12,0,0,1-14.7-8.485L36.655,440.1a12,12,0,0,1,8.485-14.7L605.377,275.293a12,12,0,0,1,14.7,8.485l3.753,14.006L921.82,217.937a12,12,0,0,1,14.7,8.485l49.1,183.237,0-.007ZM601.476,324.478a12,12,0,0,0-14.7-8.485L96.089,447.473a12,12,0,0,0-8.485,14.7L172.5,778.994a12,12,0,0,0,14.7,8.485L677.883,656a12,12,0,0,0,8.486-14.7Zm321.676-70.664a12,12,0,0,0-14.7-8.485L629.78,320l83.6,311.994,184.651-49.477-10.053-69.775,18.577-7.936-14.776-55.148a12,12,0,0,1,8.485-14.7l37.671-10.093a11.979,11.979,0,0,1,11.869,3.409l18.5-5.958ZM927.813,387.1l-37.671,10.094a12,12,0,0,1-14.7-8.485L850.094,294.1a12,12,0,0,1,8.485-14.7l37.671-10.094a12,12,0,0,1,14.7,8.485L936.3,372.4A12,12,0,0,1,927.813,387.1Zm-71.776,72.136,25.352,94.612a12,12,0,0,1-8.486,14.7l-37.671,10.094a12,12,0,0,1-14.7-8.485L795.184,475.54a12,12,0,0,1,8.485-14.7l37.672-10.094A12,12,0,0,1,856.037,459.235Zm-24.816-46.254-37.672,10.094a12,12,0,0,1-14.7-8.485L753.5,319.978a12,12,0,0,1,8.486-14.7l37.671-10.094a12,12,0,0,1,14.7,8.485l25.351,94.612A12,12,0,0,1,831.221,412.981Zm-71.776,72.136L784.8,579.729a12,12,0,0,1-8.485,14.7L738.64,604.52a12,12,0,0,1-14.7-8.486l-25.351-94.612a12,12,0,0,1,8.485-14.7l37.671-10.094A12,12,0,0,1,759.445,485.117Zm-24.817-46.254-37.671,10.094a12,12,0,0,1-14.7-8.485L656.909,345.86a12,12,0,0,1,8.485-14.7l37.671-10.094a12,12,0,0,1,14.7,8.485l25.351,94.612A12,12,0,0,1,734.628,438.863Z" transform="translate(0 -13)"/>
</svg>
