<svg xmlns="http://www.w3.org/2000/svg" width="1024" height="1024" viewBox="0 0 1024 1024">
  <defs>
    <style>
      .cls-1 {
        fill-rule: evenodd;
      }
    </style>
  </defs>
  <path id="Coal-3" class="cls-1" d="M882,657c-4.162,4.834-11.862,10.994-21.477,17.6a43.962,43.962,0,1,1-75.677,41.133c-9.8,4-18.2,6.678-23.846,7.27-2.6,0-6.26-.05-10.851-0.16a51.5,51.5,0,1,1-85.812-3.473c-14.429-.7-29.961-1.49-46.337-2.367l-19.587-.964,1.427-19.561c0.452-6.191-5-11.547-12.18-11.962L401.628,673.75c-7.179-.415-13.365,4.267-13.816,10.458l-1.363,18.67L385,703.4c-12.631-.737-25.029-1.462-37.1-2.17a44,44,0,0,1-86.74-5.128c-10-.6-19.336-1.152-27.885-1.663a51.494,51.494,0,1,1-67.08-15.223C135.59,640.938,43.831,514.208,46,373c5.108-14.05,9-17,9-17L352,244l15-1,599,38s9.12,3.2,9,8S968.7,485.647,882,657Zm-685,7s68.918,4.213,157.83,9.481l1.04-15.63a17,17,0,0,1,18.065-15.865l242.8,15.748A17,17,0,0,1,632.6,675.8l-0.872,13.447c54.079,2.856,95.107,4.764,108.1,4.754C727.34,675.544,700.706,631.456,677,561c-32.284-95.952-27-130-27-130l-3-3L79.986,386.293C79.828,539.772,197,664,197,664ZM920.125,306.107l-0.664.276,0.743-.271ZM392.719,352.2c0-7.18-6.715-13-15-13s-15,5.82-15,13c0,0.324.019,0.644,0.046,0.962C354.37,353.967,348,357.837,348,362.5c0,5.247,8.059,9.5,18,9.5a31.524,31.524,0,0,0,8.186-1.047A7.216,7.216,0,0,0,374,372.5c0,2.816,1.634,5.393,4.338,7.393l25.57,1.649c4.24-2.07,7-5.262,7.085-8.861A16,16,0,0,0,421,376a17.9,17.9,0,0,0,2.383-.162c1.06,3.189,4.25,5.889,8.6,7.516l15.57,1C454.792,382.8,460,378.532,460,373.5c0-6.106-7.657-11.1-17.327-11.475A6.593,6.593,0,0,0,443,360c0-6.075-8.507-11-19-11a30.136,30.136,0,0,0-9.51,1.478,11.42,11.42,0,0,0-1.961.754,14.382,14.382,0,0,0-6.209,4.741A34.619,34.619,0,0,0,398,355a36.714,36.714,0,0,0-5.752.446A11.388,11.388,0,0,0,392.719,352.2ZM313,373.5c0-5.247-5.6-9.5-12.5-9.5-4.972,0-9.254,2.212-11.267,5.407A27.435,27.435,0,0,0,284.5,369c-5.536,0-10.373,1.6-13.109,3.993l41.243,2.661A7.263,7.263,0,0,0,313,373.5Zm457-12.662a10.005,10.005,0,0,0,1-4.338c0-6.351-6.044-11.5-13.5-11.5S744,350.149,744,356.5c0,4.863,3.548,9.011,8.555,10.693Zm39.042-39.879c0-6.075-8.283-11-18.5-11s-18.5,4.925-18.5,11c0,5.517,6.83,10.084,15.736,10.877A5.2,5.2,0,0,0,786,335.5c0,4.694,8.059,8.5,18,8.5s18-3.806,18-8.5c0-4.384-7.03-7.991-16.056-8.449A8.241,8.241,0,0,0,809.041,320.959ZM837.5,328c8.56,0,15.5-4.03,15.5-9s-6.94-9-15.5-9-15.5,4.029-15.5,9S828.94,328,837.5,328Zm-120-3c-8.008,0-14.5,3.582-14.5,8s6.492,8,14.5,8c7.4,0,13.489-3.058,14.377-7.007A32.241,32.241,0,0,0,740,335c10.493,0,19-4.7,19-10.5S750.493,314,740,314s-19,4.7-19,10.5a5.889,5.889,0,0,0,.054.752A25.685,25.685,0,0,0,717.5,325Zm-25,32c-8.008,0-14.5,6.044-14.5,13.5s6.492,13.5,14.5,13.5,14.5-6.044,14.5-13.5S700.508,357,692.5,357ZM642,307c0-7.18-8.283-13-18.5-13S605,299.82,605,307c0,6.4,6.591,11.722,15.265,12.8A9.432,9.432,0,0,0,620,322c0,6.627,6.94,12,15.5,12a18.063,18.063,0,0,0,10.691-3.316A11.483,11.483,0,0,0,654.5,334c5.8,0,10.5-3.806,10.5-8.5s-4.7-8.5-10.5-8.5a12.515,12.515,0,0,0-4.47.817,14.184,14.184,0,0,0-8.849-6.982A9.491,9.491,0,0,0,642,307Zm-71-1c0-6.627-7.164-12-16-12-8.087,0-14.768,4.5-15.845,10.343A10.544,10.544,0,0,0,536.5,304c-5.247,0-9.5,3.806-9.5,8.5s4.253,8.5,9.5,8.5a9.529,9.529,0,0,0,8.851-5.429A19.609,19.609,0,0,0,555,318a21.384,21.384,0,0,0,2.209-.117C558.338,321.918,564.3,325,571.5,325c8.008,0,14.5-3.806,14.5-8.5s-6.492-8.5-14.5-8.5c-0.247,0-.487.014-0.731,0.022A9.138,9.138,0,0,0,571,306Zm-47,51.5a18.247,18.247,0,0,0,2.414,9.42A5.543,5.543,0,0,0,526,369c0,5.523,8.507,10,19,10,0.613,0,1.219-.017,1.817-0.047a5.963,5.963,0,0,0-.55,2.379c0,5.8,8.73,10.5,19.5,10.5s19.5-4.7,19.5-10.5-8.731-10.5-19.5-10.5H565.63A15.1,15.1,0,0,0,566,367.5a14.052,14.052,0,0,0-5.041-11,7.539,7.539,0,0,0,2.041-5c0-5.247-6.044-9.5-13.5-9.5-5.059,0-9.461,1.961-11.773,4.858a9.663,9.663,0,0,0-.85-0.931A8.671,8.671,0,0,0,537,344.5c0-6.351-6.94-11.5-15.5-11.5S506,338.149,506,344.5s6.94,11.5,15.5,11.5a20.944,20.944,0,0,0,2.566-.16C524.024,356.385,524,356.938,524,357.5Zm-30.71-.5a14.8,14.8,0,0,0-2.356.19A5.132,5.132,0,0,0,491,356.5c0-5.247-8.059-9.5-18-9.5s-18,4.253-18,9.5,8.059,9.5,18,9.5a31.493,31.493,0,0,0,8.321-1.081,8.634,8.634,0,0,0-.321,2.323c0,5.656,5.5,10.241,12.29,10.241s12.29-4.585,12.29-10.241S500.078,357,493.29,357ZM496,312c0-7.18-6.492-13-14.5-13a15.644,15.644,0,0,0-7.915,2.11C469.919,298.6,464.3,297,458,297c-11.046,0-20,4.925-20,11s8.954,11,20,11a33.039,33.039,0,0,0,10.322-1.577A14.675,14.675,0,0,0,481.5,325C489.508,325,496,319.18,496,312Zm154,55c0-6.075-8.954-11-20-11s-20,4.925-20,11,8.954,11,20,11S650,373.075,650,367ZM369,323c0-3.314-4.925-6-11-6s-11,2.686-11,6,4.925,6,11,6S369,326.314,369,323Zm41-16.791c3.874,0,7.015-1.884,7.015-4.209s-3.141-4.209-7.015-4.209-7.015,1.884-7.015,4.209S406.126,306.209,410,306.209Zm2,30.291c0,4.694,5.82,8.5,13,8.5s13-3.806,13-8.5-5.82-8.5-13-8.5S412,331.806,412,336.5ZM360,274L115.037,362.906l66.8,4.309c4.01-3.593,14.4-11.36,29.161-11.215,8.442-10.56,25.429-15.023,37-11a23.148,23.148,0,0,1,16-5l10-6s12.2-19.525,34-13c11.047-7.09,26-9,26-9s4.545-20.862,36-17c5.658-11.187,23.871-23.651,44-12,0.2-3.5,4.782-6.183,12.9-8.183l-48.087-3.05ZM687,422l-3,4s-6.357,41.8,26,135c24.089,69.387,49.609,110.323,59.616,124.9,30.4-10.841,70.434-30.051,81.786-43.235,67.19-132.8,81.68-272.59,84.628-315.492Z" transform="translate(1.516 -10)"/>
</svg>
