<svg xmlns="http://www.w3.org/2000/svg" width="1024" height="1024" viewBox="0 0 1024 1024">
  <defs>
    <style>
      .cls-1 {
        fill-rule: evenodd;
      }
    </style>
  </defs>
  <path id="Copper-3" class="cls-1" d="M994.406,513.23s-14.687-1.121-39.341-6.85c-0.308,23.949-.519,38.534-0.519,38.534H922.862l1.36-46.852a552.7,552.7,0,0,1-109.778-47.454L714.361,695.72V827a13.287,13.287,0,0,1-13.287,13.287H55.13A13.287,13.287,0,0,1,41.843,827V516.3A13.287,13.287,0,0,1,55.13,503.009H315.215L935.127,87.029s10.006-6.738,19.419,2.044c4.695,4.38,2.612,239.952,1.09,370.666,12.6,2.5,25.526,4.686,38.77,6.476C994.227,491.589,994.406,513.23,994.406,513.23ZM380.146,685.958a9.2,9.2,0,0,0,9.2,9.2h265.8l-275-171.593V685.958Zm6.738-186.734,301.487,139.45,93.8-207.692a626.757,626.757,0,0,1-113.8-95.591c-7.124-6.777-4.088-12.265-4.088-12.265s47.407,42.564,129.494,82.154L916.729,133.022Zm439.98-79.033a676.28,676.28,0,0,0,98.665,32.821l8.575-295.46ZM701.074,861.753a24.53,24.53,0,0,1,24.53,24.53V914.9a24.53,24.53,0,0,1-24.53,24.529H54.108A24.529,24.529,0,0,1,29.578,914.9V886.283a24.53,24.53,0,0,1,24.53-24.53H701.074Z" transform="translate(0 0)"/>
</svg>
