<svg xmlns="http://www.w3.org/2000/svg" width="1024" height="1024" viewBox="0 0 1024 1024">
  <defs>
    <style>
      .cls-1 {
        fill-rule: evenodd;
      }
    </style>
  </defs>
  <path id="Cork-4" class="cls-1" d="M979.4,415.016a11.486,11.486,0,0,1-2.516,2.917L481.627,992.039c-11,19.041-111.621-18.443-224.744-83.732S60.971,774.65,71.971,755.605l-0.252-.145L321.43,39.716a11.49,11.49,0,0,1,1.329-3.808C340.323,5.5,501.569,65.689,682.912,170.351S997.025,384.513,979.461,414.925l0.011,0.006ZM111.551,741.882l0.223,0.129c-10.091,17.473,63.133,78.62,163.551,136.576s190,90.774,200.093,73.3l430.4-504.975c-65.92-15.588-179.885-66.179-303.148-137.32C480.694,239.2,380.713,166.623,333.617,117.369Zm780.592-381.3c-10.7-1.731-25.574-7.454-40.895-16.3-26.481-15.283-44.251-34.073-39.691-41.968,0.981-1.7,2.92-2.751,5.617-3.21-42.156-30.9-93.825-64.533-151-97.532q-16.45-9.494-32.619-18.408a4.844,4.844,0,0,1-.033,4.063c-3.487,6.037-25.709-.263-49.635-14.071-22.757-13.134-38.844-28.324-37.362-34.973-44.416-21.311-84.489-37.834-117.046-48.408q3,1.6,6.035,3.352c26.945,15.552,45.527,33.806,41.5,40.772s-29.128.007-56.073-15.545-45.527-33.805-41.5-40.771c0.037-.064.088-0.118,0.128-0.179-16.317-2.179-27.6-.809-32.6,4.568C392.011,131.22,494.433,206.167,620.279,278.8,747.521,352.238,864.839,403.76,929.6,417.47,932.365,405.975,918.511,385.876,892.143,360.586ZM544.875,330.039c-18.815-10.859-31.676-23.8-28.725-28.912s20.6-.446,39.41,10.413,31.676,23.8,28.726,28.912S563.691,340.9,544.875,330.039ZM416.706,312.126c-26.945-15.551-44.222-36.064-38.589-45.817s32.042-5.052,58.987,10.5,44.222,36.065,38.59,45.818S443.652,327.678,416.706,312.126ZM216.179,607.869c12.311,7.105,19.573,17.572,16.22,23.377s-16.051,4.751-28.362-2.355-19.573-17.571-16.22-23.376S203.867,600.764,216.179,607.869ZM487.972,379.045c26.481,15.283,44.143,34.261,39.449,42.388s-29.966,2.326-56.447-12.957-44.142-34.261-39.448-42.389S461.492,363.761,487.972,379.045ZM397.335,576.76c25.087,14.479,41.728,32.616,37.168,40.511s-28.593,2.558-53.68-11.921-41.727-32.617-37.168-40.512S372.248,562.281,397.335,576.76ZM307.586,864.21c19.512,11.262,32.829,24.72,29.745,30.061s-21.4.541-40.915-10.72-32.829-24.72-29.745-30.061S288.074,852.949,307.586,864.21Zm33.02-74.65c2.951-5.109,17.394-2.295,32.26,6.285s24.526,19.677,21.576,24.786-17.394,2.294-32.26-6.286S337.656,794.668,340.606,789.56Zm74.947,92.588c23.461,13.54,38.348,31.67,33.252,40.494s-28.246,5-51.707-8.54-38.349-31.671-33.252-40.5S392.092,868.607,415.553,882.148Zm51.57-68.9c4.56-7.895,25.392-4.406,46.53,7.794s34.578,28.49,30.018,36.385-25.392,4.4-46.53-7.794S462.563,821.142,467.123,813.247ZM655.008,637.463c3.085-5.341,15.566-3.911,27.877,3.2s19.791,17.195,16.706,22.536-15.565,3.91-27.876-3.2S651.924,642.8,655.008,637.463Zm34.015-117.154c4.694-8.128,28.836-2.978,53.923,11.5s41.619,32.805,36.925,40.933-28.836,2.978-53.923-11.5S684.329,528.436,689.023,520.309ZM608,695.545c-4.694,8.127-25.634,4.825-46.773-7.375s-34.468-28.678-29.774-36.8,25.634-4.826,46.772,7.374S612.7,687.417,608,695.545Zm-85.257,71.882c-4.426,7.663-28.915,1.811-54.7-13.07s-43.1-33.156-38.672-40.819,28.915-1.811,54.7,13.07S527.173,759.764,522.747,767.427ZM453,657.1c2.95-5.109,22.666.749,44.037,13.083s36.3,26.473,33.352,31.582-22.667-.749-44.037-13.083S450.049,662.206,453,657.1Zm52.867-76c-21.371-12.334-35.216-28.357-30.924-35.787s25.094-3.456,46.465,8.878,35.215,28.356,30.924,35.787S527.237,593.431,505.867,581.1ZM566.923,397.7c-17.654-10.189-29.465-22.779-26.38-28.119s19.9-1.411,37.55,8.778,29.464,22.778,26.38,28.119S584.576,407.891,566.923,397.7Z" transform="translate(-14 -0.5)"/>
</svg>
