<svg xmlns="http://www.w3.org/2000/svg" width="1024" height="1024" viewBox="0 0 1024 1024">
  <defs>
    <style>
      .cls-1 {
        fill-rule: evenodd;
      }
    </style>
  </defs>
  <path id="Fish-3" class="cls-1" d="M36.1,404.75s59.1,59.948,92.1,83.569,65.785,25.311,99.044,4.127S389.758,386.828,434.621,369.672c14.475-27.959,45.94-94.354,73.252-99.045C530.281,268.389,553,311,553,311s99.983,21.9,214.865,74.148c129.605,58.945,176.032,102.3,193.962,120.71,16.563,17.007,28.82,32.8,28.888,43.332s-18.77,45.189-116.584,100.076C773.188,705.909,654.043,738.113,512,727c-140.617-11-205.219-50.714-258.96-69.48s-70.773-30.756-86.664-24.761S97.2,691,46.886,753.469c-10.243-24.579,2.941-62.691,2.941-62.691S70.944,659.341,85.9,638.949c16.9-23.037,27.682-45.765,27.857-59.839s-7.78-28.2-28.888-56.745c-23.81-32.2-42.886-56.883-42.886-56.883S27.269,431.234,36.1,404.75Z" transform="translate(0 0)"/>
</svg>
