<svg xmlns="http://www.w3.org/2000/svg" width="1024" height="1024" viewBox="0 0 1024 1024">
  <defs>
    <style>
      .cls-1 {
        fill-rule: evenodd;
      }
    </style>
  </defs>
  <path id="Flowers-3" class="cls-1" d="M662.2,849.053c-57.871,79.6-110.071,103.535-110.071,103.535s-5.274-27.667,20.634-124.382c19.6-73.155,74.808-200.3,158.311-329.249C818.525,363.9,867.635,323.082,867.04,335.459,858.316,516.96,735.319,748.478,662.2,849.053ZM512.51,569.122c-110.044.329-215.114-150.206-239.788-389.387a962.108,962.108,0,0,1-4.175-139.2c3.733-1.418,8.791-1.047,14.577,5.431C295.4,59.716,393.517,186.634,407.78,184.814c14.079-1.8,82.672-149.087,104.566-152.939,21.867,3.852,90.372,151.143,104.434,152.939,14.244,1.82,112.236-125.1,124.5-138.844,5.763-6.46,10.8-6.847,14.528-5.444A961.911,961.911,0,0,1,751.651,179.4C727.109,417.842,622.528,568.793,512.51,569.122ZM452.016,828.206c25.943,96.715,20.661,124.382,20.661,124.382S420.4,928.651,362.447,849.053c-73.225-100.576-196.4-332.094-205.127-513.594-0.6-12.377,48.585,28.445,136.162,163.5C377.105,627.911,432.392,755.051,452.016,828.206Zm58.962-226.275h2.027a15.2,15.2,0,0,1,15.2,15.2v361.8a15.2,15.2,0,0,1-15.2,15.2h-2.027a15.2,15.2,0,0,1-15.2-15.2v-361.8A15.2,15.2,0,0,1,510.978,601.931Z" transform="translate(-0.171 -1)"/>
</svg>
