<svg xmlns="http://www.w3.org/2000/svg" width="1024" height="1024" viewBox="0 0 1024 1024">
  <defs>
    <style>
      .cls-1 {
        fill-rule: evenodd;
      }
    </style>
  </defs>
  <path id="Ham-3" class="cls-1" d="M992,361c-8.334,20.465-16,20-16,20s4.122,31.757-33,56c0.468,41.094-1.341,109.7-57,177-21.6,26.119-21.109,36.625-22,56s-14.515,97.732-32.143,109.871C816.256,783.109,787,779,787,779s-4.829-1.532-3-69c0.29-10.7-19.217-22.278-27-15-4.962,9.337-3.187,70.891-11,83-7.813,7.562-55,0-55,0s-1.781-13.561-2-38c-0.214-23.9-.716-45.636-10-48-13.084-3.331-38.164-1.486-91-4s-104.762-6.967-111-2-7.189,15.9-11,38c-4.312,25-5.134,44.484-12,50s-47.286,6.038-56-4c-1.54-16.5,4.565-84.6-11-87s-21.289,22.334-26,50-8.977,30.27-12,39c-4.569,6.264-44.7,6.038-55-2-3.871-10.579-4.75-38.314-7-69-2.068-28.2-5.815-42.451-24-40s-61.567,20.506-117-27c-38.172,2.454-86.719.732-97-7s-20.347-74.577-3-126c8.273-13.833,27.919-24.911,68-44,6.38-25.57-4.526-56.035,10-127,6.749-33.375,34-59,34-59s11.4,14.456,19,68c10.19-3.489,8.408-76.557,11-96,0,0,23.777.041,39,21s18.965,29.709,32,37,46.676,9.56,83,0,152.744-54.22,311-48,231.385,87.863,270,115c12.691-18.231,25.608-19.992,36-23s15.942-12.365,19-20S1001.22,338.37,992,361Zm-83,50s-13.7-25.456-84-67-164.078-61.188-260-52-147.026,24.829-195.862,38.71C313.13,346.629,281.991,347.247,254,344c-26.487-3.073-39-35-39-35-5.8,60.3-16.267,68.47-38,71-18.072,2.1-22-15-22-15s-1.9,1.989-2,21c-1.258,93.23-4.179,94.479-18,108s-45,21-45,21,9.945,54.165-4,76c0,0-.163-0.192,13,2s40.182-7.99,70,8,50.2,19.96,90,15,56.454,8.439,58,41,3.609,85.886,6,88c6.865,2.114,6.37-1.114,12-31s9.738-75.368,57-73c47.2,2.365,28.752,107.019,38,108,6.774,6.364,14.278-100.976,26-104,11.484-2.963,46.721-2.006,101-1,63.537,1.177,132.351-.527,151,6s6.5,92.677,13,94c4.289,0.873,3.749-67.585,17-88,6.5-10.012,39.008-7.208,61-1s14.911,78.494,17,81c8.932-.436,12.832-62.854,17-98s39.1-71.545,62-117S909,411,909,411Z" transform="translate(-3.484 -0.188)"/>
</svg>
