<svg xmlns="http://www.w3.org/2000/svg" width="1024" height="1024" viewBox="0 0 1024 1024">
  <defs>
    <style>
      .cls-1 {
        fill-rule: evenodd;
      }
    </style>
  </defs>
  <path id="Hops-3" class="cls-1" d="M988.619,650.089c-10.016,13.93-17.748,25.218-44.694,13.2s-44.334-30.471-46.725-45.7,0.546-54.4-3.047-66.008-12.683-16.489-27.426-26.4c-13.611-9.153-26.691-20.285-61.868-21.285a339,339,0,0,1-63.368,42.19c11.761,10.575,19.331,24.055,21.88,37.6a75.152,75.152,0,0,1,33.936,25.121c14.657,19.263,18.441,43.244,11.086,61.783,8.992,22.072,6.023,46.217-9.251,60.8a42.8,42.8,0,0,1-5.329,4.3,76.072,76.072,0,0,1-13.79,30.944c-13.182,17.55-32.539,27.562-50.831,27.775-14.155,20.4-42.316,31.42-69.994,28.551-20.887-2.166-39.075-11.856-50.594-25.519-27.252,5.416-55.8-15.638-64.78-48.494a74.862,74.862,0,0,1-2.16-29.12c-10.737-13.443-16.046-32.873-12.952-53.375a75.675,75.675,0,0,1,7.385-23.133,49,49,0,0,1-3.134-11.205c-20.317-1.057-34.728-2.237-43.726-3.105a62.887,62.887,0,0,1,.112,8.025,38.481,38.481,0,0,1,5.617,6.856c7.805,12.108,9.76,28.67,6.615,45.592a36,36,0,0,1,4.815,16.469c0.586,10.48-2.705,21.482-8.821,31.773,1.6,28.224-24.436,60.572-58.644,72.6-0.261.092-.518,0.168-0.778,0.257a40.433,40.433,0,0,1-6.771,14.106c-18.587,25.244-64.057,33.8-101.56,19.118-19.958-7.815-33.635-20.639-39.265-34.732a74.8,74.8,0,0,1-48.814-31.4c-11.626-17.306-13.185-36.556-6.039-51.7-11.672-11.733-19.072-29.088-19.072-48.47,0-26.853,14.191-49.827,34.3-59.315a76.212,76.212,0,0,1,2.717-20.407c9.175-33.575,38.774-54.821,66.555-48.1a38.359,38.359,0,0,1,2.077-3.52,47.689,47.689,0,0,1,18.209-15.645,31.562,31.562,0,0,0-8.058-4.322c-7.929-2.973-28.011,3.422-39.615,0-17.958-5.3-35.127-24.557-55.867-26.4-26.723-2.378-29.422,6.751-47.741,13.2s-43.241-6.937-58.915,12.186-14.514,28-13.2,47.728,3,33.731-4.063,44.683-24.589,28.485-36.568,38.589c-11.352,9.575-11.43,15.823-11.173,28.434s4.51,18.4-1.016,29.45c0,0-22.607,11.922-28.442-7.109s-5.8-27.606-3.047-42.651c2.756-15.085,45.609-43.493,54.147-61.66,7.945-16.906-7.229-46.707-.311-64.263s29.248-48.089,45.71-50.775,26.854,0.736,39.615-3.046,23.36-16.366,45.71-16.248c21,0.11,42.773,1.814,51.8,10.155,6.008,5.549,26.375,18.691,35.552,18.279s28.655-7.02,46.725,5.077a70.911,70.911,0,0,1,8.033,6.32c-18.994-34.27-50.379-92.944-62.885-128.18-25.5-71.849-33.319-121.143-30.473-144.2,8.226-3.592,74.344,4.349,118.846,31.481S455.767,313.75,459.4,317s4.3-4.7,8.126-13.2,10.811-40.455,60.947-87.333,86.034-61.067,119.861-81.241,41.315-23.389,47.741-26.4,11.273,1.857,21.331,19.3,37.214,63.172,26.41,145.217S718.067,388.25,720.456,392.151s34.562-6.3,87.356-3.047,65.57,5.786,67.041,9.14c0.918,2.094-5.808,35.937-40.061,75.944,5.43,0.661,12.646,2.635,21.777,7.327,21.629,11.114,27.365,16.93,39.615,25.388s31.557,18.482,31.489,32.5,0.944,59.255,2.032,68.039,20.734,24.028,28.441,24.372,3.607-14.761,4.063-39.6,2.918-47.56-2.031-55.853-15.46-16.524-9.142-30.465,16.252-17.263,16.252-17.263,11.441,4.557,18.284,18.279,7.425,42.049,7.111,61.945S995.131,638.26,988.619,650.089Zm-538.49-70.658q1.275,0.284,2.549.646a48.256,48.256,0,0,1,26.222,19.3c16.671,1.728,38.212,3.7,56.827,4.569a75.678,75.678,0,0,1,21.6-31.895c-5.86-8.29-13.39-16.489-20.726-17.416-10.92-1.378-63.1,1.792-92.126,3.724A41.143,41.143,0,0,1,450.129,579.431ZM720.456,424.647c-31.821,3.757-37.584,4.062-37.584,4.062s0.137-8.655,7.11-39.605,52.747-178.462,4.063-242.7c-44.06,23.568-71.962,32.287-116.813,67.023s-70.142,66.87-84.31,102.566-18.283,52.806-18.283,52.806a477.923,477.923,0,0,0-51.805-38.589c-30.989-20.116-61.737-46.856-114.782-53.822C304.189,313.5,333.941,409.688,404.741,527.9c2.2,0.756,4.385,1.566,6.54,2.5,1.717,0.743,3.373,1.537,4.989,2.36,16.407-1.364,40.687-3.384,61.094-5.088-5.26-12.611-19.112-41.67-48.134-79.441-39.277-51.12-51.9-66.284-59.93-75.148s-12.786-15.921-9.142-23.356,18.284-11.171,18.284-11.171,21.959,21.4,58.914,74.132c32.738,46.717,46.772,63.269,63.463,104.568A1346.029,1346.029,0,0,1,568.09,363.717c46.973-91.5,53.829-106.3,60.946-115.768s22.411-3,23.363,1.016a49.441,49.441,0,0,0,1.789,6.536c-2.791,5.12-29.714,54.688-55.625,109.231-21.02,44.246-53.48,116.277-65.115,149.223,9-5.847,23.714-14.079,47.847-25.331,60.763-28.333,88.47-30.946,111.735-35.543s33.188-8.777,39.615-7.109,17.435,12.636,10.157,20.311c-5.414,5.709-43.565,3.135-107.671,27.418-44.692,16.929-70.495,31.467-82.037,38.726a151.616,151.616,0,0,1,20.612,15.807c8.457-11.058,20.668-20.856,35.616-27.545,29.841-13.354,61.21-10.2,77.894,5.939,19.529-3.57,86.93-21.467,145.99-104.012C798.659,414.538,752.277,420.89,720.456,424.647ZM654.188,255.5l0.242-.443S654.519,256.211,654.188,255.5Z" transform="translate(0 32.5)"/>
</svg>
