<svg xmlns="http://www.w3.org/2000/svg" width="1024" height="1024" viewBox="0 0 1024 1024">
  <defs>
    <style>
      .cls-1 {
        fill-rule: evenodd;
      }
    </style>
  </defs>
  <path id="Imports-3" class="cls-1" d="M863.366,711.312h-739.5s-9.865-.8-21.85-13.132c-17.734-18.255-81.977-142.264-69.2-162.642H79.544V442.122a10.1,10.1,0,0,1,10.1-10.1h34.436v-106.6a10.1,10.1,0,0,1,10.1-10.1h43.442a10.1,10.1,0,0,1,10.1,10.1v106.6h38.657V262.137a10.1,10.1,0,0,1,10.1-10.1H279.93a10.1,10.1,0,0,1,10.1,10.1V432.02h30.03a10.1,10.1,0,0,1,10.1,10.1v93.416H442.3V442.6a10.1,10.1,0,0,1,10.1-10.1h33.336V359.76a10.1,10.1,0,0,1,10.1-10.1h99a10.1,10.1,0,0,1,10.1,10.1v72.734h32.327a10.1,10.1,0,0,1,10.1,10.1v92.942h99V442.6a10.1,10.1,0,0,1,10.1-10.1h34.343V348.651a10.1,10.1,0,0,1,10.1-10.1h43.442a10.1,10.1,0,0,1,10.1,10.1v83.843h18.182a10.1,10.1,0,0,1,10.1,10.1v92.942h103.03s6.837,3.435,7.082,10.1S922.961,685.779,863.366,711.312Z" transform="translate(0.015 30.329)"/>
</svg>
