<svg xmlns="http://www.w3.org/2000/svg" width="1024" height="1024" viewBox="0 0 1024 1024">
  <defs>
    <style>
      .cls-1 {
        fill-rule: evenodd;
      }
    </style>
  </defs>
  <path id="Iron-3" class="cls-1" d="M970.98,667.854a75.043,75.043,0,0,1-8.092,5.022L727.535,790.5a19.723,19.723,0,0,1-2.762,1.327,71.5,71.5,0,1,1-108.241,1.957l-209.455-.452a71.5,71.5,0,1,1-106.959-2.477,19.654,19.654,0,0,1-2.633-1.282L61.125,671.107c-0.929-.509-1.809-1.012-2.654-1.51A16,16,0,0,1,46,654V382a16,16,0,0,1,16-16h79.132c4.374-16.2,14.33-51.946,18.868-59,5.907-9.183,20.975-5.3,25-12s5.576-21.22,15-33,42.9-36.863,52-42,16.5-3.344,23-9,11.024-23.066,21-30,43.389-23.467,60-22,24.112,10.453,36,8,16.274-18.349,27-24,31.837-6.83,41-11,16.359-24.552,25-30,38.253-10.271,45-9,12.045,18.762,17,21,20.008,3.848,26,6,31.144,40.448,38,42,25.124,2.31,35,7,15.622,28.359,25,33,32.068,9.617,41,16,16.48,28.891,22,32,34.012,5.287,43,8,16.734,38.957,23,39,49.127,25.627,56,31c5.342,4.176,28.144,24.772,40.549,38H963a16,16,0,0,1,16,16V654A15.98,15.98,0,0,1,970.98,667.854ZM947,413a16,16,0,0,0-16-16H94a16,16,0,0,0-16,16V635a15.992,15.992,0,0,0,10.387,14.968L132,671l0.429,0.07,179.628,88.663a29.2,29.2,0,0,0,12.532,3.423l377.861,0.838a29.112,29.112,0,0,0,12.525-3.366L898.916,670l37.793-20.067A15.994,15.994,0,0,0,947,635V413Z" transform="translate(-0.5 10.094)"/>
</svg>
