<svg xmlns="http://www.w3.org/2000/svg" width="1024" height="1024" viewBox="0 0 1024 1024">
  <defs>
    <style>
      .cls-1 {
        fill-rule: evenodd;
      }
    </style>
  </defs>
  <path id="Labor-3" class="cls-1" d="M878.906,428.253l-18.244.428-4.907.209c0,0.381.011,0.761,0.011,1.143,0,97.216-36.09,184.65-93.3,244.679,16.04,23.874,32.429,60.309,32.318,110.076C690.539,835.267,461.459,934.836,449.7,939.945l0.576,0.627-51.028,57.152S330,907.755,298.742,867.248l-4.229,26.32L232.3,940.583,142.046,811.714l54.471-46.755,27.373,6.867s72.674-61.217,123.893-83.01c28.187,1.708,63.76,12,82.673,18.053-34.406-25.8-63.636-60.327-85.375-101.039H225.75l3.061-11.227L303.88,460.27c-0.185-2.621-.333-5.255-0.469-7.893l-128.689,5.472,3.061-16.329,73.481-73.48V209.853s12.728-20.531,31.637-30.616c0,0,23.14-7.92,46.679-3.074C385.023,89,475.088,32.276,576.821,32.276c168.528,0,305.147,155.581,305.147,347.5A414.922,414.922,0,0,1,878.906,428.253ZM763.865,766.172c-2.406-36.03-21.055-67.675-29.878-75.636-60.644,38.9-132.806,70.308-225.438,129.08-7.921,26.677-24.9,73.651-24.9,73.651S604.105,834.2,763.865,766.172Zm-559.34,31.6-25.3,20.75L238.549,900.9l29.567-23.611Zm43.9-6.8,37.149,46.782,50.407-40.819L298.6,749.912ZM350.627,716c-16.336,8.37-18.767,11.792-18.767,11.792l36.932,38.07,48.354-32.045S378.687,718.021,350.627,716Zm7.8,124.56,80.387,87.532c7.634-22.486,27.55-81.191,42.817-126.638,15.1-9.629,30.763-19.123,46.659-28.432-9.555-5.408-35.968-17.1-60.663-18.189C424.079,768.237,358.422,840.558,358.422,840.558ZM580.256,727.816a196.27,196.27,0,0,0,34.7-3.3c47.642-25.857,91.613-49.1,122.166-68.254,53.005-54.76,87.206-135.782,87.206-224.637,0-.469-0.013-0.935-0.015-1.4l-114.058,4.85a58.445,58.445,0,0,1,8.42,13.587c18.743,41.659,5.932,100.2-12.247,129.611-23.04,37.281-48.8,52.846-75.521,45.925-14.523-3.761-25.281-17.685-27.555-26.535,6.7-13.4,21.431-18.37,21.431-18.37s5.435,17.556,24.494,17.35c19.742-.214,50.09-55.416,51.028-91.851,0.438-17.027-2.434-62.059-38.781-57.151-25.329,3.421-36.741,30.617-36.741,30.617s-18.911,4.272-22.452-13.267c1.665-8.05,8.266-17.25,16.64-26.035L334.826,451.041C342.86,603.559,452.706,728.465,580.256,727.816Zm-300.417-152.6h50.809a360.755,360.755,0,0,1-18.567-58.842Zm65.581-357.14c-16.506-24.154-48.018-11.179-48.018-11.179-11.84,7.583-19.851,23.015-19.851,23.015V349.29s10.063,15.1,27.8,16.709c9.228-4.187,29.517-11.2,48.987-48.987C373.749,279.339,361.618,241.777,345.42,218.073Zm17.523-21.759C389.7,229.3,406.5,284.281,374.751,335.382c-32.318,52.025-62.3,58.136-77.562,63.274a66.013,66.013,0,0,1-24.2-8.154l-33.968,35.709,203.163-9.549c-0.011-.209-0.025-0.417-0.036-0.626-6.98-134.658,20.814-255.287,70.342-336.906C451.609,96.756,399.038,138.994,362.943,196.314Zm202.674-126c-0.5.023-1,.057-1.493,0.084-57.576,73.064-91.01,202.259-83.77,344.47l203.5-9.564c-0.1-1.973-.2-3.943-0.321-5.922C674.961,260.1,628.979,137.562,565.617,70.314Zm51.86,3.453c56.388,75.61,96,190.148,104.1,321.759,0.164,2.668.3,5.326,0.429,7.984l118.682-5.578q0.452-9.01.459-18.156C841.146,225.09,744.189,96.9,617.477,73.768Z" transform="translate(0 -3)"/>
</svg>
