<svg xmlns="http://www.w3.org/2000/svg" width="1024" height="1024" viewBox="0 0 1024 1024">
  <defs>
    <style>
      .cls-1 {
        fill-rule: evenodd;
      }
    </style>
  </defs>
  <path id="Machinery-4" class="cls-1" d="M974.409,553.058l-89.18,15.675q-2.447,16.193-6.254,31.91l76.308,48.548c1.714,1.091,2.184,4.129,1.077,6.8l-27.677,66.8c-1.107,2.674-3.589,4.489-5.572,4.049l-88.09-19.573q-8.5,14.019-18.157,27.221l51.975,74.4c1.159,1.659.415,4.653-1.645,6.712l-51.458,51.448c-2.059,2.059-5.054,2.8-6.714,1.644l-74.413-51.959q-12.849,9.4-26.5,17.708l19.423,88.1c0.436,1.977-1.4,4.458-4.088,5.573l-67.234,27.843c-2.69,1.114-5.742.656-6.832-1.05l-48.62-76.1q-15.042,3.624-30.532,6.04l-15.8,88.967c-0.354,1.992-3,3.583-5.91,3.583H475.739c-2.913,0-5.557-1.591-5.91-3.583l-15.8-88.924q-15.887-2.448-31.312-6.207l-48.685,76.2c-1.089,1.706-4.141,2.164-6.832,1.05l-67.233-27.843c-2.691-1.115-4.524-3.6-4.088-5.573l19.488-88.4q-13.5-8.251-26.234-17.574l-73.687,51.487c-1.659,1.16-4.649.419-6.7-1.635L157.4,815.068c-2.056-2.055-2.8-5.045-1.637-6.7l51.508-73.687q-9.549-13.037-17.982-26.9L101.24,727.209c-1.976.436-4.456-1.392-5.568-4.076L67.88,656.051c-1.112-2.684-.652-5.73,1.054-6.819l76.1-48.564q-3.717-15.411-6.162-31.289L50.576,553.732c-1.993-.353-3.584-2.991-3.584-5.9V475.227c0-2.906,1.591-5.544,3.584-5.9l88.407-15.667q2.457-15.852,6.219-31.246L69.342,374c-1.706-1.089-2.166-4.134-1.054-6.819L96.079,300.1c1.112-2.685,3.592-4.513,5.568-4.077l87.991,19.42q8.184-13.4,17.423-26.045l-51.649-73.717c-1.166-1.664-.435-4.655,1.616-6.706l51.246-51.235c2.051-2.05,5.042-2.782,6.707-1.616l73.6,51.546q12.843-9.444,26.5-17.8l-19.606-88.335c-0.44-1.983,1.38-4.467,4.06-5.577l66.955-27.728c2.68-1.11,5.724-.641,6.815,1.073l48.439,76.052q15.8-3.878,32.1-6.416L469.5,50c0.353-2,2.986-3.6,5.886-3.6h72.472c2.9,0,5.533,1.6,5.886,3.6l15.645,88.816q15.9,2.426,31.342,6.163L649.19,68.9c1.092-1.714,4.136-2.183,6.815-1.073l66.956,27.728c2.68,1.11,4.5,3.593,4.06,5.577L707.518,189q13.925,8.448,27.042,18.034l74.218-52.015c1.664-1.165,4.651-.438,6.7,1.609l51.14,51.129c2.046,2.046,2.774,5.033,1.608,6.7l-51.932,74.07q9.462,12.865,17.836,26.542l88.193-19.6c1.984-.441,4.465,1.375,5.573,4.048l27.677,66.8c1.107,2.674.637,5.712-1.078,6.8L878.56,421.433q3.858,15.68,6.4,31.851l89.449,15.722c2,0.352,3.6,2.978,3.6,5.872v72.308C978.008,550.08,976.411,552.707,974.409,553.058ZM512,369.021A142.885,142.885,0,1,0,654.914,511.906,142.9,142.9,0,0,0,512,369.021Z" transform="translate(-0.5 0.094)"/>
</svg>
