<svg xmlns="http://www.w3.org/2000/svg" width="1024" height="1024" viewBox="0 0 1024 1024">
  <defs>
    <style>
      .cls-1 {
        fill-rule: evenodd;
      }
    </style>
  </defs>
  <path id="Marble-3" class="cls-1" d="M919.755,282.281c-41.809,40.56-113.9,57.4-176.853,32.621-78.128-30.748-98.959-75.832-116.059-110.1h-0.594l-0.051.2H395.333c-17.109,34.307-37.952,79.448-116.12,110.235-62.989,24.807-135.115,7.949-176.945-32.663-30.129-29.25-61.038-87.708-30.991-158.207,30.562-71.705,117.177-76.552,117.177-76.552H833.613s86.57,4.84,117.116,76.456C980.761,194.683,949.868,253.067,919.755,282.281ZM899.771,105.923c-29.96-26.641-65.159-26.5-65.159-26.5H717.134l0.01,0.04H187.455S152.238,79.321,122.262,106c-27.641,24.6-38.62,75.154-26.992,110.234,11.783,35.55,51.765,78.477,112.965,81.656,64.21,3.335,111.623-35.685,131.131-60.221S370.348,170.3,370.348,170.3h16.8l-0.04-.154H651.815s11.468,42.776,30.966,67.281,66.885,63.476,131.062,60.145c61.168-3.174,101.129-46.047,112.906-81.552C938.371,180.983,927.4,130.489,899.771,105.923ZM813.609,275.872c-36.025,5.65-79.607-17.679-92.364-43.878-12.345-25.35-11.842-63.347,19.5-88.8,22.6-18.351,70.851-14.295,88.259,3.134,16.72,16.741,22.479,35.719,11.289,58.5s-33.034,29.339-54.392,22.984-25.647-31.061-18.473-42.833c7.38-12.111,18.473-8.358,18.473-8.358s6.028,4.883,6.157,8.358-4.964,4.182-4.105,11.492,13.11,14.567,24.63,3.134,8.165-29.039-4.105-38.654-49.322-8.138-63.628,14.626-4.4,47.788,11.289,61.637,64.815,22.776,91.338-1.045c29.316-26.33,33.034-53.869,24.63-78.352-10.562-30.769-51.313-39.7-51.313-39.7H481.1l0.108-.3h-278.1s-40.719,8.935-51.272,39.726c-8.4,24.5-4.682,52.059,24.61,78.407,26.5,23.838,75.585,14.905,91.263,1.046s25.574-38.9,11.28-61.681-51.316-24.257-63.576-14.636-15.613,27.24-4.1,38.681,23.751,4.179,24.61-3.136-4.231-8.023-4.1-11.5,6.153-8.363,6.153-8.363,11.083-3.756,18.458,8.363c7.167,11.78,2.883,36.5-18.458,42.863s-43.166-.2-54.348-23-5.427-41.791,11.28-58.544c17.393-17.441,65.608-21.5,88.187-3.136,31.315,25.47,31.817,63.493,19.483,88.862-12.747,26.217-56.293,49.562-92.288,43.908-37.709-5.924-73.2-31.641-84.085-71.09-11.561-41.906,10.624-73.2,23.584-85.725C171.4,97.978,201.06,94.82,201.06,94.82H534.323l0.114,0.319H822.845s29.68,3.156,51.313,24.028c12.972,12.515,35.174,43.788,23.605,85.665C886.872,244.253,851.348,269.952,813.609,275.872ZM401,253.845C401,299.187,402,355,402,355h39V224.845H583V355h39s1-55.813,1-101.155C679.645,331.108,774,342,774,342c-18.261,37.565-45.432,61.231-58.867,71.333a9.949,9.949,0,0,1,.877,4.081v476.73h8.938a10,10,0,0,1,10,10v65.143a10,10,0,0,1-10,10h-426.9a10,10,0,0,1-10-10V904.144a10,10,0,0,1,10-10h9.938V417.414a9.949,9.949,0,0,1,.877-4.081C295.431,403.231,268.261,379.565,250,342,250,342,344.355,331.108,401,253.845ZM338.992,444.007V868.994a10,10,0,0,0,10,10h67V434.007h-67A10,10,0,0,0,338.992,444.007Zm269.013-10V878.994h68a10,10,0,0,0,10-10V444.007a10,10,0,0,0-10-10h-68Zm-31,.993c0-.335-0.018-0.666-0.05-0.993H448.043a9.883,9.883,0,0,0-.051.993V878a9.887,9.887,0,0,0,.051.994H576.959c0.032-.327.05-0.658,0.05-0.994V435ZM551,255.845H473V377h78V255.845ZM651,320v69h49s16.251-13.085,27-31C727,358,676.572,348.315,651,320ZM318.991,943a10,10,0,0,0,10,10H695.009a10,10,0,0,0,10-10V927a10,10,0,0,0-10-10H328.991a10,10,0,0,0-10,10V943ZM373,320c-25.572,28.315-76,38-76,38,10.749,17.915,27,31,27,31h49V320Z" transform="translate(1 -1.547)"/>
</svg>
