<svg xmlns="http://www.w3.org/2000/svg" width="1024" height="1024" viewBox="0 0 1024 1024">
  <defs>
    <style>
      .cls-1 {
        fill-rule: evenodd;
      }
    </style>
  </defs>
  <path id="Oil-4" class="cls-1" d="M323.454,986.887L425.58,226.645h20.692V101.491h27.147V38.114H552.6v63.377h26.128V226.645h20.624l102.19,760.242H323.454Zm316.131-46.878L512.327,825.524,385.089,940.009h254.5ZM440.871,484.564l71.242,64.22,71.23-64.22H440.871Zm154.775-39.056-83.818-75.3-83.8,75.3H595.646ZM425.983,663.4H598.266L512.118,586Zm-8.778,39.056,95.117,85.852,95.1-85.852H417.205ZM358.726,926.966l132.951-120.02-105-94.464Zm55.848-428.609L394.145,655.141l97.3-87.72Zm11.47-88.032,65.108-58.692-51.439-46.212Zm48.1-280.023v92.817h76.7V130.3h-76.7Zm55.476-66.069H496.4v37.258h33.229V64.233ZM444.707,272.5L511.823,333,578.929,272.5H444.707Zm139.464,32.7L532.5,351.635l65.594,59.122Zm25.478,193.149-76.86,69.067,97.572,87.955ZM532.972,806.948L666.218,927.216,637.9,712.537Z" transform="translate(-0.5 -0.5)"/>
</svg>
