<svg xmlns="http://www.w3.org/2000/svg" width="1024" height="1024" viewBox="0 0 1024 1024">
  <defs>
    <style>
      .cls-1 {
        fill-rule: evenodd;
      }
    </style>
  </defs>
  <path id="Oranges-3" class="cls-1" d="M828.817,686.73c10.725,16.057,35.605,51.1,59.44,68.667-17.85,2.556-27.377-3.042-27.377-3.042s-34.082-30.367-58.406-70.423q-25.428-4.914-54.685-11.7C723.336,776.111,628.463,855.044,515.154,855.044,383.3,855.044,276.4,748.15,276.4,616.29A237.791,237.791,0,0,1,333.37,461.524c-74.622-54.2-142.162-109.964-193.256-155.266,0.374,7.749,1.639,22.8,5.927,34.431,4.849,13.155,22.1,72.006,21.293,111.535-1.267,61.6-4.344,118.524-47.656,167.3-43.635,49.142-75.7,34.048-81.117,84.158-8.056-13.242-15.51-42.769-14.2-109.507,1.709-86.739,15.114-171.184,83.144-262.615,12.88-15.92,20.448-19.152,22.08-34.7-15.2-13.65-28.747-26.21-40.331-37.294-5.226-7.028-1.054-55.536,8.112-58.809,0,0,8.794-3.514,10.139,5.069s-4.242,25.022,2.028,36.5c0.883,1.616,3.411,4.676,7.566,9.082,14.612,1.434,43.429,3.229,50.23-4.012,9.208-9.805,38.273-73.611,133.842-78.075s119.045,31.348,146.01,33.461,37.516-3.042,37.516-3.042-2.595,12.82-18.251,24.335S419.606,311.108,319.427,319.4s-136.56-42.9-150.065-48.67c-12.1-5.169-29.039-8.922-41.486-8.44C153.271,287,204.511,332.247,281.427,392.777c2.531-2.951,14.179-15.5,34.958-22.683,20.994-7.263,94.74-9.311,160.206,0,11.518,1.638,15.81,5.46,17.388,8.388,6.978-.614,14.038-0.945,21.175-0.945,131.86,0,238.754,106.893,238.754,238.753a240.749,240.749,0,0,1-2.537,34.834c70.464,17.966,147.545,29.347,234.226,33.3a18.4,18.4,0,0,1,14.2,10.14S953.426,707.978,828.817,686.73ZM294.875,403.312q25.357,19.771,54.164,41.509a240.192,240.192,0,0,1,21.885-18.784c-0.032-10.094,4.1-19.225,6.3-28.567C379.928,385.964,313.578,375.38,294.875,403.312Z" transform="translate(0 0)"/>
</svg>
