<svg xmlns="http://www.w3.org/2000/svg" width="1024" height="1024" viewBox="0 0 1024 1024">
  <defs>
    <style>
      .cls-1 {
        fill-rule: evenodd;
      }
    </style>
  </defs>
  <path id="Potatoes-3" class="cls-1" d="M988.285,623.537c-17.047,45.33-29.321,82.777-114.439,108.363S716.634,777,655.1,757.218,545.72,683.618,528.5,649.868s-22.768-64.229-26.331-90.133-32.809-37.347-44.56-63.8-14.749-42.744-11.14-81.019,7.192-47.594,22.28-70.891c26.03-40.193,42.213-44.555,71.9-46.586s86.22-11.643,115.451,12.153,60.266,74.9,77.981,94.184,34.1,17.427,61.776,15.191,70.3,4.05,90.134,16.2,41.351,14.047,75.954,52.662S1005.33,578.207,988.285,623.537ZM938.661,498.971c-24.372-25.722-60.9-41.743-81.019-47.6s-54.88-7.57-79.8-5.556-41.981-.373-57.932-17.737S676.973,370.319,652,347.334c-28.3-26.053-66.382-27.419-93.116-25.591s-43.4,2.293-66.84,38.484c-13.585,20.976-15,31.643-18.245,66.106s-2.992,48.147,13.181,68.587c15.861,20.046,36.288,36.427,39.5,59.751s8.8,53.669,24.3,84.057,55.454,78.012,110.864,95.82,120.324,0.24,196.966-22.8S946.307,655,961.656,614.18,970.772,532.862,938.661,498.971ZM902.2,530.366c-2.523-1-3.52-9.636-17.216-8.1s-24.4,3.59-32.408,9.115c-7.877,5.434-14.333,14.241-19.242,25.318-4.4,9.925-4.863,22.1-4.05,26.331s4.043,13.954-2.026,12.153-17.016-4.1-15.191-18.229c1.329-10.292,2.219-14.686,4.051-23.293s8.611-17.993,15.191-25.319,24.99-22.205,34.433-22.28,35.749-4.626,41.522,4.051,7.138,13.51,5.064,17.217S904.726,531.367,902.2,530.366Zm-63.8-36.459c-4.962,2.059-14.75,3.818-21.267,4.051s-30.881-4.036-41.522-6.076-26.482-3.078-23.293-5.064,11.761-6.471,17.216-5.063,57.98,1.483,61.777,5.063S843.363,491.849,838.4,493.907Zm-75.955,89.121c3.081-4.678,21.239-23.524,23.293-12.153s8.77,13.706-4.051,22.28-15.751,14.371-24.305,16.2-20.682-3.657-29.37-2.026-32.453.24-39.5-1.012-7.383-2.551-3.038-6.077,17.191-3.463,23.292-4.051,20.708,0.434,30.382-2.025S759.364,587.706,762.445,583.028ZM714.4,567.972c-5.685,4.06-25.913,9.676-29.759,6.868s-9.931-7.675-10.3-11.446,4.69-8.958,14.879-9.157,7.5-1.6,9.157-11.446,1.962-13.47,8.012-12.59,7.685,5.922,6.867,14.879S720.083,563.913,714.4,567.972Zm-7.653,83.922c3.117,8.283,3.268,19.02,7.089,22.28s10.868,10.067,10.127,14.178-1.608,12.308-16.2,18.229-16.049,6.527-22.28-1.012-11.193-20.383-13.166-30.382,2.188-12.7,10.127-20.255S703.628,643.61,706.745,651.894Zm121.528-1.013c3.5-.167,5.72,4.433,4.051,12.153s-2.691,16.848-6.077,19.242-13.281.281-14.178-5.064,3.943-8.337,7.089-15.191S824.778,651.048,828.273,650.881Zm56.713-93.171c0,4.524,2.918,13.792,1.013,17.216s-4.835,13.847-8.1,11.14-8.839-10.265-9.115-13.165,5.346-9.112,8.1-15.191S884.986,555.483,884.986,557.71ZM624.615,360.69c-2.888-.132-11.823-9.607-12.143-13.247s7.293-5.191,15.455-4.416,12.492,3.083,8.831,5.52S627.5,360.821,624.615,360.69Zm-0.914,52.2c-8.429,6.13-17.084,3.289-21.268-2.026s1.552-6.668,9.115-7.089S635.779,404.105,623.7,412.889Zm-9.115,82.031c2.329,7.251,1.344,10.5,1.013,15.191s4.552,4.588,1.013,10.128-6.813,9.945-23.293,9.114-22.365-8.859-21.267-12.153c3.456-10.369,10.26-7.421,18.229-10.127s7-1.079,12.152-10.127S612.258,487.669,614.586,494.92ZM551.073,351.481c-1.171-14.056,25.241-3.143,23.7,3.951S552.144,364.331,551.073,351.481Zm45.335,281.675c2,0.682,1.082,14.412,3.37,22.465s5.709,12.228,2.246,13.479c-2.469.892-9.858-3.326-12.355-10.109-4.451-12.088-5.322-10.372-2.247-16.849S594.4,632.474,596.408,633.156ZM524.453,466.564c-5.258,1.57-17.476-9.065-18.229-14.179s22.7-8.149,30.382-1.012C541.248,455.683,529.711,464.994,524.453,466.564Zm-66.84,253.183c-46.208,46.85-107.31,77.814-173.178,83.044s-150.181-35.83-194.444-68.866-67.863-89.267-61.777-159,29.328-90.671,33.42-163.05,3.329-96.058,22.28-130.642,25.159-43.442,46.585-57.726c13.443-8.962,44.185,6.75,66.841,7.089s71.927,7.958,102.286,45.573,53.2,65.689,61.776,119.5,22.627,74.561,43.548,99.248S466,567.076,475.842,591.13,503.82,672.9,457.613,719.747ZM437.7,588.43c-12.319-20.017-44.322-64.89-62.878-87.288S343.8,459.92,336.191,411.1,308.324,336.8,281.4,302.675s-70.695-39.7-90.725-41.347c-14.7-1.207-39.506-16.195-47.508-11.888-12.092,6.508-18.9,19.208-35.713,50.585S91.318,352.886,87.689,418.554,63.444,503.22,58.046,566.485,73.58,680.768,112.84,710.741s114.045,67.226,172.468,62.481,112.619-32.839,153.6-75.344S450.021,608.456,437.7,588.43Zm-78.859,61.477c-17.009-2.233-30.387-16.237-30.777-22.468-0.507-8.09,13.175-5.522,21.96-5.107s13.782,3.924,16.908,11.234S375.844,652.139,358.836,649.907Zm-13.721-73.531c-7.233-.648-17.228.065-14.5-5.107s31.2-7.41,36.33-2.042S352.347,577.023,345.115,576.376Zm-17.964-76.595c-4.379,5.134-16.8,4.05-21.139,2.042s-15.81-9.877-16.023-13.276c-0.482-7.691,6.283-8.706,15.308-14.3s8.514-7.573,15.756-7.148,5.121,4.824,4.818,12.255S331.53,494.647,327.151,499.781Zm-39.178-91.914c-5.715-2.658-3.275-6.094-5.64-9.191s-8.474-2.822-6.652-9.191,11.535-7.243,16.9-5.107,4.19,6.616,5.639,9.192,5.037,5.61,6.653,9.191S293.688,410.525,287.973,407.867ZM288.3,607.014c5.372,7.236,5.766,16.483-2.207,13.276s-17.562-10.7-30.01-8.906-40.462,2.942-47.6,4.051-29.075,1.454-39.5,9.115c-11.943,8.779-19.387,15.006-19.912,23.314s-6.478,15.311-13.538,10.213c-4.744-3.425-2.214-14.259,3.528-24.511s28.154-26.2,35.744-27.574,38.415-4.427,62.341-7.149S282.923,599.777,288.3,607.014ZM181.9,545.577c0.94,9.542-7.772,30.542-9.824,22.679-4.346-16.653-1.649-30.692.5-36.854S180.958,536.034,181.9,545.577ZM154.879,433.4c-4.8-3.83-13.686-4.013-5.576-8.17s30.569-8.1,40.126-6.128,12.778,6.216,8.678,9.192S159.677,437.229,154.879,433.4ZM188.69,658.34c6.047,1.383,15.461,2.862,17.57,8.588s-2.068,6-5.545,8.587-22.631,10.473-22.129-3.68S182.643,656.957,188.69,658.34Zm118.721,43.651c8.924-3.9,17.586-4.585,25.638,5.106s9.212,12.912,3.177,18.383-23.106,6.1-30.126,4.085-22.92-10.22-23.24-15.319C282.309,705.451,298.487,705.888,307.411,701.991ZM97.706,629.3c-5.9-2.3-5.477-12.021-7.715-13.867-5.731-4.724-13.528-6.391-15.191-15.191s2.625-14.845,7.1-14.17,9.694,9.9,11.695,15.61,12.486,3.526,12.886,15.61S101.086,630.62,97.706,629.3Z" transform="translate(0 0.016)"/>
</svg>
