<svg xmlns="http://www.w3.org/2000/svg" width="1024" height="1024" viewBox="0 0 1024 1024">
  <defs>
    <style>
      .cls-1 {
        fill-rule: evenodd;
      }
    </style>
  </defs>
  <path id="Sheep-3" class="cls-1" d="M32,388c0.569-11.94,10.1-21.634,21-33s28.507-30.57,34-36,11.174-12.972,12-18,0.241-22.442,2-35,4.276-29.212,12-35,15.945-3.977,21,3,5.078,11.357,8,11,12.082-1.977,24-3,14.683,3.357,21,3,11.652-2.344,22-3,13.187,3.524,18,4,21.659-2.075,40,8,30,30,30,30,7.1,4.1,10,15c4.739,8.337,17.5,17.764,30,18,9.935-.864,33.637-6.568,48,6,10.33-1.364,25.373-1.068,36,3,12.093,0.768,27.244.1,38,3,11.856-.765,34.383-2.734,53,1,12.018-1.032,29-1,29-1s8.089-4.836,28-5,28.591,2.5,38,3,29-4.669,50-3,22.666,6.465,31,7,17.2,3.066,30,4,19.705-.8,30,3c11.761,1.234,23.51,3.067,40,6s52.785,11.337,79,24c14.849,3.131,28.149,1.429,49,3s39.288,9.435,55,33,13.254,47.872,11,59-5.883,15.006-18,16c-8.451,3.193-19.617,1.206-21,0-1.383,3.927-8,8-8,8s-3.117,33.213-1,45-2.251,31.982-3,36c0.718,6.951,1.748,35.521-5,48-1.248,16.879-4.923,42.827-26,59s-35.392,13.731-39,38-13.76,98.54-19,106-24.563,8.907-27,8-4.463-4.028-4-12,3.138-50.8,4-60,3.431-36.237-32-35c-1.334,2.337-3.8,39.938-6,60s-9.5,44.907-24,46-16-1-16-1-2.4-3.73-1-18,1.5-20.933,2-33,2.129-25.6-4-28-26.911-6.468-53-7-29-1-29-1-43.919,3.431-59-3c-13.615,4.2-28.423,4.1-41-3-10.011,1.335-23-2-23-2s-42-.17-53-3a57.753,57.753,0,0,1-46,2s-3.6,2.064-14,1c-12.964,6.635-29,3-29,3a19.629,19.629,0,0,0-13,13c-3.594,10.8-6.006,42.539-7,56s-2.579,32.047-21,37c-13.357,3.591-15.877,1.175-17,0s1.457-31.431,2-46,1.222-52.336-7-56-15.512,5.97-17,27-0.214,52.374-8,62-12.383,13.608-22,14-12.716-.859-13-5,0.45-45.165,1-56-0.15-43.769-2-46c-10.283-2.231-24.387-13.172-32-22s-24-54-24-54-11.256-5.714-11-25c-12.942-11.953-13.791-26.784-13-41-7.642-12.383-7-29-7-29s-6.559-10.123-8-27c-14.64-8.444-15-33-15-33s-4.694-2.193-4-11c-9.205-13.573-25.333-28.164-40-37s-28.435-20.865-32-22S30.533,418.8,32,388Z" transform="translate(4.188 -22.219)"/>
</svg>
