<svg xmlns="http://www.w3.org/2000/svg" width="1024" height="1024" viewBox="0 0 1024 1024">
  <defs>
    <style>
      .cls-1 {
        fill-rule: evenodd;
      }
    </style>
  </defs>
  <path id="Steel-3" class="cls-1" d="M831.125,110.793h1.251l-280.6,81.747L551.916,864.8,783.61,917.832h0.446a6.3,6.3,0,0,1,6.3,6.3v28.038a6.3,6.3,0,0,1-6.3,6.3H241a6.3,6.3,0,0,1-6.3-6.3V924.135a6.279,6.279,0,0,1,3.421-5.575h-2.008l234.929-53.774-0.187-673.2L197.2,111.843h-0.845a6.3,6.3,0,0,1-6.3-6.3V69.827a6.3,6.3,0,0,1,6.3-6.3h631.3a6.3,6.3,0,0,1,6.3,6.3v35.714A6.291,6.291,0,0,1,831.125,110.793Z" transform="translate(0 1)"/>
</svg>
