<svg xmlns="http://www.w3.org/2000/svg" width="1024" height="1024" viewBox="0 0 1024 1024">
  <defs>
    <style>
      .cls-1 {
        fill-rule: evenodd;
      }
    </style>
  </defs>
  <path id="Tobacco-3" class="cls-1" d="M738.719,460.328c-5.666,18.016-14.173,37.159-13,51s6.812,40.033-6,73c-13.39,34.454-26.47,63.573-46,86s-37.551,23.659-47,36c-13.2,17.233-14.464,42.69-28,62s-38.569,23.963-61,39c-26.343,17.659-47.18,4.594-67,8s-30.2,9.144-48,28-16.944,23.449-30,51-34.816,94.469-44,96c0,0-17.78,7.506-24-12,2.722-31.43,36.174-99.383,41-131,3.457-22.654-1.609-34.044-11-44s-33.855-17.913-41-43,2.635-45.33-3-68-29.03-25.416-31-96c-2.126-76.158-3.062-95.2,10-135,9.984-30.417,18.379-40.045,31-48,15.709-9.9,24.734-15.971,30-26s0.782-26.2,11-54c8.749-23.8,25.477-47.675,53-61s23.225-7.12,34-17,4.922-36.83,6-48,3.025-22.862,25-39,69.123-48,99-68,47.459-35.941,59-52,12-16,12-16,6.278,27.821,14,49,24.48,61.343,33,79c7.43,15.4,14.453,23.06,18,43s-6.476,40.59,1,66,23.879,37.384,28,85S744.385,442.313,738.719,460.328Zm-24-97c-4.043-42.845-13.752-53.172-25-80s-4.673-47.316-3-62c2.168-19.031-7.165-35.926-18-52s-21.945-46.589-33-72c-18.335,17.458-51.609,37.117-83,57-33.345,21.12-53.027,28.236-63,46-10.464,18.639-3.861,17.428-5,43s-12.23,36.709-32,46-36.04,12.548-51,34-15.776,42.447-21,70-25.512,37.155-37,44-21.675,23.082-28,46-5.381,42.6-5,76,0.619,51.675,5,68c6.515,24.281,27.44,43.373,30,67,1.966,18.149-2.964,38.592.774,55.287,3.679,16.431,30.553,27.054,42.226,39.713s13,25,13,25c35.589-36.4,66.153-32.232,94-30s53.187-16.562,71-31c19.815-16.062,20.232-28.5,28-53,6.946-21.913,23.437-27.548,55-52,29.994-23.237,48.439-97.327,46-117s-2.414-31.284,7-58S718.761,406.173,714.719,363.328ZM660.065,527.9L474.621,635.852a9.987,9.987,0,0,1-2.642,1.064l-45.018,125.4a10,10,0,0,1-12.791,6.033l-1.882-.676a10,10,0,0,1-6.033-12.791L419.388,718.3a10,10,0,0,1-1.668-2.471L349.751,573.154a10,10,0,0,1,4.727-13.329l1.805-.86a10,10,0,0,1,13.329,4.727l60.037,126.023,62.245-173.384a10.094,10.094,0,0,1-.414-0.97l-59.475-163a10,10,0,0,1,5.966-12.822l1.879-.685a10,10,0,0,1,12.822,5.966l50.807,139.244L605.934,198.671a10,10,0,0,1,12.791-6.033l1.882,0.675A10,10,0,0,1,626.64,206.1L570.194,363.336l68.425-43.687a10,10,0,0,1,13.81,3.047l1.077,1.686a10,10,0,0,1-3.048,13.81l-89.394,57.074a9.983,9.983,0,0,1-2.773,1.227L483.317,605.334,649,508.886A10,10,0,0,1,662.67,512.5l1.006,1.729A10,10,0,0,1,660.065,527.9Z" transform="translate(0 -0.016)"/>
</svg>
