<svg xmlns="http://www.w3.org/2000/svg" width="1024" height="1024" viewBox="0 0 1024 1024">
  <defs>
    <style>
      .cls-1 {
        fill-rule: evenodd;
      }
    </style>
  </defs>
  <path id="Tourists-3" class="cls-1" d="M869.153,952.836l-91.625,42.825-0.379-.293a18.768,18.768,0,0,1-6.948,1.339L399.679,942.28a18.835,18.835,0,0,1-16.6-9.939c-7.157,10.321-56.038,18.307-115.276,18.307-64.165,0-116.18-9.37-116.18-20.928V381.264h-3.14a9.419,9.419,0,0,1-9.42-9.42v-75.36a9.42,9.42,0,0,1,9.42-9.421h78l26.5-200.573-57.407-2.359c-12.842-.528-23.109-8.408-21.709-17.55l4.276-27.935c1.4-9.143,13.553-13.59,25.965-10.252L268.337,45.67a13.067,13.067,0,0,1,6.474,4.057,5.22,5.22,0,0,1,3.209,5.509l-0.212,1.607a10.728,10.728,0,0,1-.1,2.276l-1.485,9.7L247.4,287.063h57.712L357.752,68.779l2.1-9.582a10.708,10.708,0,0,1,.728-2.158l0.38-1.576a5.222,5.222,0,0,1,4.977-3.986,13.067,13.067,0,0,1,7.5-1.457l66.151,6.99c12.782,1.351,22.522,9.873,20.539,18.907l-6.06,27.6c-1.983,9.034-14.4,12.693-26.57,8.565L373.088,93.633l-46.651,193.43h61.729a9.421,9.421,0,0,1,9.42,9.421v75.36a9.42,9.42,0,0,1-9.42,9.42h-3.14v211.11a18.845,18.845,0,0,1,10.649-6.573l49.031-18.6a22.513,22.513,0,0,1,13.3-4.431l105.895,2.764,0.525-16.694A11.513,11.513,0,0,1,576.3,537.7l94.154,2.957A11.512,11.512,0,0,1,681.6,552.521l-0.5,16.072,183.18,4.78c11.408-.126,20.657,7.89,20.657,17.9V935.832C884.931,943.5,877.672,950.1,869.153,952.836ZM254.23,61.137a7.5,7.5,0,0,0-5.647-8.1L212.56,43.518c-7.478-2.011-14.8.669-15.644,6.176l-1.684,11.477c-0.843,5.508,5.343,10.255,13.08,10.573l37.364,1.645a7.506,7.506,0,0,0,7.813-6.043Zm130.381,22.9,35.455,11.907c7.333,2.487,14.812.282,16.007-5.16l2.558-11.314c1.194-5.443-4.674-10.577-12.374-11.391L389.222,64a7.5,7.5,0,0,0-8.184,5.529L379.5,75.588A7.506,7.506,0,0,0,384.611,84.036ZM168.364,914.972c0,11.032,44.552,19.976,99.509,19.976s99.509-8.944,99.509-19.976h0.9V840.8c-20.125,6.229-57.586,10.417-100.481,10.417-42.159,0-79.072-4.045-99.434-10.1v73.856Zm0-99.434c0,11.032,44.552,19.976,99.509,19.976s99.509-8.944,99.509-19.976h0.9V682.706H298.152a7.327,7.327,0,0,1-7.327-7.327V473.371a7.327,7.327,0,0,1,7.327-7.327h70.127V385.451H168.364V815.538ZM368.279,669.113V480.684H312.617a7.326,7.326,0,0,0-7.326,7.327V661.786a7.327,7.327,0,0,0,7.326,7.327h55.662ZM383.124,309.3a9.419,9.419,0,0,0-9.42-9.42H162.939a9.42,9.42,0,0,0-9.42,9.42v49.73a9.421,9.421,0,0,0,9.42,9.42H373.7a9.42,9.42,0,0,0,9.42-9.42V309.3Zm61.167,598.5c0,5.054,5.474,9.794,12.227,10.587l32.917,3.866c6.753,0.793,12.227-2.661,12.227-7.715V793.466c0-5.054-5.474-9.794-12.227-10.587l-32.917-3.866c-6.753-.793-12.227,2.661-12.227,7.715V907.8Zm18.188-299.968-42.51-2.023a18.84,18.84,0,0,0-18.84,18.84V902.994a18.84,18.84,0,0,0,18.84,18.84l11.641,1.921a7.865,7.865,0,0,1-.531-2.783V770.454c0-5.3,5.738-8.918,12.816-8.087l18.584,2.183V607.834ZM661.347,617.3L487.6,609.029V767.5l15.445,1.814c7.078,0.832,12.816,5.8,12.816,11.1V930.929a7.372,7.372,0,0,1-3.481,6.149l148.968,24.574V754.926h-141.3a13.606,13.606,0,0,1-13.606-13.607v-62.8a13.606,13.606,0,0,1,13.606-13.607h141.3V617.3Zm-124.6,63.6a13.607,13.607,0,0,0-13.607,13.607v31.873a13.607,13.607,0,0,0,13.607,13.607h180.11a13.607,13.607,0,0,0,13.607-13.607V694.506A13.607,13.607,0,0,0,716.862,680.9H536.752Zm232-40.548a18.84,18.84,0,0,0-18.84-18.84l-63.444-3.019v46.42h47.1a13.607,13.607,0,0,1,13.607,13.607v62.8a13.607,13.607,0,0,1-13.607,13.607h-47.1V965.8l63.444,10.465a18.84,18.84,0,0,0,18.84-18.84V640.351Zm29.416-29.211-11.57-.5a18.732,18.732,0,0,1,2.444,9.26V961.979L812.6,951.143c2.728-2.517,4.684-5.438,4.7-8.644l1.017-313.256C818.379,619.248,809.355,611.144,798.167,611.14Zm64.517,0.066c0-10.016-9.249-18.032-20.658-17.9l-14.237-.437c7.374,2.7,12.546,9.177,12.5,16.746l-1.974,327.384,3.444-2.267-3.414,2.313-0.03,0v0.018l0.03-.02c11.383-.193,24.339-10.657,24.339-20.641V611.206ZM727.9,951.105c-18.9-1.545-34.223-19.233-34.223-39.508S709,876.14,727.9,877.686s34.222,19.234,34.222,39.508S746.8,952.651,727.9,951.105Zm0-57.386c-10.646-.871-19.276,7.681-19.276,19.1s8.63,21.383,19.276,22.253,19.276-7.681,19.276-19.1S738.542,894.589,727.9,893.719Z" transform="translate(0 -0.016)"/>
</svg>
