<svg xmlns="http://www.w3.org/2000/svg" width="1024" height="1024" viewBox="0 0 1024 1024">
  <defs>
    <style>
      .cls-1 {
        fill-rule: evenodd;
      }
    </style>
  </defs>
  <path id="Wheat-3" class="cls-1" d="M638.245,322.949c0.2,16.932,1.618,140.217-.011,155.093,0.157,13,1.707,144.654-.077,156.595,0.238,19.926,1.667,146.09-.151,155.347-1.974,10.052-13.727,34.824-39.777,57-21.2,18.042-38.707,20.2-54.694,36-8.414,8.313-17.525,23.5-18.535,37.02v72a4,4,0,0,1-4,4H502a4,4,0,0,1-4-4V921.862c-1.036-14.152-10.024-22.849-18.164-30.86-16.05-15.795-34.055-17.464-54.906-36-26.176-23.268-37.95-46.945-39.932-57-1.825-9.257-.39-135.421-0.152-155.347-1.791-11.941-.235-143.595-0.076-156.595-1.636-14.876-.215-138.161-0.011-155.093-1.739-16.459.024-156.94,0.024-156.94S388.2,186.31,390,197c3.252,19.257,6.92,43.993,16,58,7.286,11.239,35.033,37.265,57.523,54.025C482.365,323.068,491.731,331.547,498,352.4V271.944c0.358-7.314-3.369-11.5-7-14.944-14.38-13.633-28.168-39.163-26-72,1.752-26.544,11.361-46.643,26-71,14.4-23.96,30.167-43.367,21-79,17,10,37.884,49.31,47,90,9.878,44.092,5.3,95.4-14,123-8.039,11.5-19.87,20.674-20,29.756V345.9c6.247-21.964,15.567-30.515,34.785-44.892,22.4-16.76,50.809-41.856,58.215-53,9.571-14.4,13.22-43.749,16-63a111.757,111.757,0,0,1,4.221-18.991S639.977,306.49,638.245,322.949ZM498,465.209c-0.384-11.071-8-29.767-18.554-40.188-16-15.8-33.31-18.212-54.736-36-18.15-15.067-27.81-27.889-33.151-38.035,0.209,15.222,2.3,42.056,13.247,63.034,6.195,11.876,36.227,33.238,58.717,50,18.842,14.042,28.208,22.522,34.477,43.374V465.209ZM498,620.2c-0.65-12.4-8-29.767-18.554-40.188-16-15.795-33.31-18.212-54.736-36-18.165-15.08-27.826-27.911-33.165-38.06,0.131,15.019,2.071,42.607,13.261,64.059,6.195,11.876,36.227,33.237,58.717,50,18.842,14.042,28.208,22.522,34.477,43.373V620.2ZM498,776.2c0.148-11.338-8-29.768-18.554-40.189-16-15.794-33.31-18.211-54.736-36-18.014-14.955-27.665-27.7-33.031-37.807,0.228,15.261,2.363,41.932,13.285,62.806,6.214,11.875,36.339,33.237,58.9,50,18.458,13.713,27.85,22.121,34.137,41.928V776.2Zm27,34.146c6.264-20.841,15.623-29.32,34.446-43.358,22.472-16.761,52.482-38.123,58.671-50,10.88-20.874,13.007-47.545,13.234-62.806-5.345,10.109-14.959,22.852-32.9,37.807-21.344,17.787-38.587,20.2-54.525,36-11.187,11.086-19.049,31.494-18.923,42.26v40.1Zm0-153.46c6.247-21.964,15.567-30.515,34.785-44.892,22.4-16.761,52.319-38.122,58.49-50,11.147-21.452,13.08-49.04,13.209-64.059-5.318,10.149-14.942,22.98-33.036,38.06-21.344,17.787-38.587,20.2-54.525,36-11.187,11.087-19.049,29.9-18.923,42.26v42.631ZM598.448,381c-21.344,17.787-38.587,20.2-54.525,36C532.736,428.085,525.672,446.63,525,459.258v41.631c6.247-21.964,15.567-30.515,34.785-44.892,22.4-16.76,52.319-38.122,58.49-50,10.9-20.978,12.988-47.812,13.2-63.034C626.15,353.111,616.527,365.933,598.448,381Z" transform="translate(0.5 -3.5)"/>
</svg>
