<?xml version="1.0" encoding="UTF-8"?>
<svg xmlns="http://www.w3.org/2000/svg" width="1024" height="1024" viewBox="-100 0 1224 1024">
  <defs>
    <style>
      .cls-1 {
        fill-rule: evenodd;
      }
    </style>
  </defs>
  <path id="Wine" class="cls-1" d="M641.258,968.074c0,11.708-57.868,21.2-129.253,21.2s-129.253-9.492-129.253-21.2a3.714,3.714,0,0,1,.217-1.216c-0.09-26.806-1.563-495.33,5.048-550.865,9.239-77.608,70.622-73.678,70.622-73.678L467.28,77.882h-6.288A9.086,9.086,0,0,1,451.9,68.8V43.377a9.086,9.086,0,0,1,9.088-9.084H563.008a9.085,9.085,0,0,1,9.087,9.084V68.8a9.085,9.085,0,0,1-9.087,9.084h-6.162l8.631,264.433s61.289-3.93,70.514,73.678c6.6,55.516,5.131,523.749,5.041,550.839A3.722,3.722,0,0,1,641.258,968.074ZM603.382,458.837a22.209,22.209,0,0,0-22.214-22.2H442.832a22.209,22.209,0,0,0-22.214,22.2v83.771a22.209,22.209,0,0,0,22.214,22.2H581.168a22.209,22.209,0,0,0,22.214-22.2V458.837Z" transform="translate(0 0.219)"/>
</svg>
