<svg xmlns="http://www.w3.org/2000/svg" width="1024" height="1024" viewBox="0 0 1024 1024">
  <defs>
    <style>
      .cls-1 {
        fill-rule: evenodd;
      }
    </style>
  </defs>
  <path id="Wood-3" class="cls-1" d="M817,752c-16.309-1.674-21.788,7.6-31,13-7.309,4.287-22.691,20.713-6,37,4.854,4.736,13,7,13,7s-11.954,17.831-48,29c-19.3,5.981-45.062,9.1-61,6.713A40.27,40.27,0,0,1,668,838s-8.29-16.633-33-16.287c-22.9.32-68.887,1.216-84,23.589V977a9,9,0,0,1-9,9H484a9,9,0,0,1-9-9V837c-1.273-.367-2.6-0.7-4-1-17.115-3.6-47.343,20.263-89,18-60.22-3.272-125.464-28.954-158-49,20.643-12.626,46-42,46-42s-33.57-21.065-60-28c13.145-31.669,74-90,74-90s-34.387-25.713-68-48c24.512-18.577,62.6-62.273,72-80s15.362-28.041,13-47-26.05-24.735-41-21c8.957-23.93,25.893-51.345,57-97s37.763-57.534,40-72-6.817-33.2-6-43,26.323-39.964,55-49a66.229,66.229,0,0,0-25-16s11.07-18.437,49-41c26.991-16.056,53.748-67.374,49-87,13.8,1.4,29.966,12.109,46,42s14,29,14,29,16.758,6.558,23,13,7.971,19.036,17,35,22.632,27.775,35,33c-1.236,18.829-5.054,47.7-5,58s15.135,20.891,28,36,34,41,34,41-9.232,31.5-9,43,13,16,13,16-5.037,30.7,0,40c1.441,2.661,23.4,4.563,35,6s22.145,19.461,28,29c-15.169,2.118-23,17-23,17s3.541,12.572,23,31,45,51,45,51-9.194,44.215-5,59c14.087,11.075,33.917,36.142,45,57s28,68,28,68S833.309,753.674,817,752Z" transform="translate(-18.5 -3)"/>
</svg>
